<svg xmlns="http://www.w3.org/2000/svg" width="384" height="384" baseProfile="tiny-ps" version="1.1"><title>Sketchplanations</title><path fill="#FBF8DE" d="M0 0h384v384H0z"/><path d="M140.38 109.12c-.108.055-1.577.273-3.319.491-8.162.817-17.031 3.976-23.506 8.224-2.667 1.798-6.802 5.392-10.611 9.368-7.4 7.625-8.543 8.932-12.407 14.324-9.304 12.963-10.665 23.311-3.809 29.792 1.633 1.525 7.727 5.011 9.305 5.283.87.164 7.89 1.798 16.161 3.704 3.755.871 7.4 1.743 8.108 1.852.707.163 4.952 1.47 9.414 2.94 21.276 7.027 32.594 15.632 32.702 24.946.218 12.145-20.677 22.058-45.272 21.568-10.556-.164-20.514-1.907-29.71-5.12-12.189-4.303-14.91-4.847-19.59-3.758-12.188 2.723-15.834 17.864-6.855 28.321 6.91 8.007 23.779 15.033 38.58 16.122 7.78.49 18.609.218 21.874-.654.435-.109 1.904-.381 3.264-.544 8.544-1.199 20.896-5.447 30.364-10.403 22.908-11.982 36.294-29.248 36.892-47.602.544-17.374-9.522-32.406-27.86-41.61-6.584-3.323-13.277-5.447-21.439-6.809-3.754-.654-8.978-1.58-11.699-2.07-10.284-1.743-16.596-4.738-16.596-7.788 0-1.47 3.972-5.12 7.237-6.7 3.809-1.851 9.468-3.703 13.44-4.356 21.167-3.758 28.894-6.264 32.649-10.512 3.972-4.575 3.428-10.512-1.306-13.943-3.32-2.396-5.714-3.322-12.298-4.575-1.85-.327-13.386-.762-13.712-.49Zm125.153 0c-.109.11-1.251.328-2.612.546-10.338 1.47-24.105 8.278-33.083 16.339-6.15 5.555-11.754 15.849-12.951 23.692-.163 1.035-.38 2.287-.544 2.723-1.252 4.52-1.252 23.148.109 40.576.598 7.789.326 18.464-.653 27.777-.925 9.15-1.306 37.798-.599 47.657.544 7.352.925 11.001 1.197 12.254.11.6.381 2.288.599 3.813 1.632 12.526 6.965 23.31 12.733 25.761 3.754 1.58 9.468.545 12.406-2.233 3.428-3.159 5.877-11.165 5.278-16.993-.598-5.61-.653-6.318-1.034-8.986-.925-6.427-1.36-10.185-1.74-13.889-.164-1.797-.436-4.248-.545-5.446-.163-1.198-.38-5.882-.49-10.348-.38-13.726 1.578-17.974 9.632-21.078 1.578-.6 3.373-1.198 3.972-1.307 3.537-.654 17.086-4.957 22.255-7.08 5.986-2.452 16.161-7.571 18.936-9.532.762-.6 1.524-1.035 1.687-1.035 1.143 0 12.842-8.605 15.89-11.655 10.882-10.948 14.364-25.272 10.501-42.81-3.32-15.25-17.032-34.04-30.744-42.1-3.482-2.016-9.794-4.684-12.08-5.066a80.394 80.394 0 0 1-3.591-.871c-1.905-.49-14.148-1.09-14.529-.708Zm14.311 32.462c7.183 2.124 14.366 8.605 18.61 16.72 3.972 7.57 4.407 13.562 1.469 19.553-4.027 8.224-13.223 14.651-34.825 24.564-4.027 1.851-10.23 4.847-13.767 6.644-6.91 3.54-10.175 4.194-11.155 2.288-.272-.49-.598-3.16-.653-5.828-.054-2.723-.217-7.244-.326-10.076-.272-8.496-.272-23.038.054-24.781 1.578-8.715 6.584-17.538 12.679-22.44 1.414-1.143 2.666-2.233 2.72-2.505.11-.218.436-.381.762-.381.272 0 1.197-.436 1.96-1.035 3.482-2.396 11.97-4.466 16.704-3.976 1.197.109 3.81.654 5.768 1.253Z"/></svg>
