<svg xmlns="http://www.w3.org/2000/svg" viewBox="0 0 959.84 149.69" preserveAspectRatio="xMinYMin meet"><path d="M16.09 114.68H16a14.44 14.44 0 01-10.67-5.13A20.91 20.91 0 01.09 94.16a5.16 5.16 0 1110.26 1.09 10.81 10.81 0 002.65 7.41 4.42 4.42 0 003 1.69h.06c7.24 0 17-3.16 26.11-8.47s13.55-10.33 14-12c-.11-4.85-5.4-8.81-10.31-10.45a80.43 80.43 0 00-10.87-1.92c-10.35-1.42-16.34-2.39-19.14-5.76a6.31 6.31 0 01-1.37-5.13C14.83 59 15.65 54 35 42.09c4.19-2.91 7.16-2.21 8.93-1.1 2.83 1.78 3.37 5.14 2.92 7.68A5.17 5.17 0 0138.7 52a113.84 113.84 0 00-11.09 8c2.81.54 6.34 1 8.87 1.37 4.94.68 9.61 1.33 12.72 2.36 8 2.67 17.37 9.62 17.37 20.4 0 3.36-1.93 6.93-5.91 10.9-9.52 9.42-29.26 19.65-44.57 19.65zm40.18-30.86zM132.61 91.34c-1.15-.27-24.28-5.59-42.66-3.52 18.39-21 37.3-30.3 37.5-30.4a5.16 5.16 0 10-4.48-9.3c-.88.43-19.24 9.43-38.13 29.93-1.23-22.36-.19-33.67-.16-33.9a5.17 5.17 0 00-10.28-1c-.08.87-2.07 21.78 2.5 64.18a5.16 5.16 0 005.1 4.58h.56a5.16 5.16 0 004.57-5.69c-.27-2.53-.52-5-.74-7.35 16.36-3.76 43.56 2.49 43.85 2.55a5.16 5.16 0 102.34-10zM175.25 111.78c-7.16 0-14.2-1.42-19.84-4.92-6.9-4.29-10.8-11.12-11.27-19.76-.65-12 5-22.48 15.52-28.88 8.36-5.1 18-6.43 23.39-3.25a9.11 9.11 0 014.71 8.33c-.29 8.6-11.84 17.22-17.06 19.83-6 3-12.86 3.57-16.24 3.66.34 5.14 2.44 8.84 6.4 11.3 8.65 5.37 24 3.68 34.15-.65a5.16 5.16 0 114.06 9.48 62.67 62.67 0 01-23.82 4.86zm.63-48.19a22.16 22.16 0 00-11.16 3.63 22.42 22.42 0 00-8.36 9.13 27.5 27.5 0 009.72-2.45c5-2.49 10-7.7 11.15-10.21a8.29 8.29 0 00-1.35-.1zM244.18 93.42a5.17 5.17 0 00-7.18-1.29c-2.75 1.92-6.55 4-9 2.78-1.89-.91-6.27-5.12-8.22-24.59a99.77 99.77 0 0117.3-1.87 5.16 5.16 0 00-.3-10.32A112.64 112.64 0 00219 60c-1-18.63 1.18-20.88 4.81-24.68l.51-.53a5.16 5.16 0 10-7.48-7.11l-.49.51c-6.43 6.72-8.89 11.71-7.53 34.53-7.92 2.85-11 6.07-11.51 6.67a5.16 5.16 0 007.79 6.77 18.6 18.6 0 014.61-2.7c2 17.43 6.44 27.29 13.82 30.81a13.91 13.91 0 006.08 1.38c4.07 0 8.52-1.67 13.3-5a5.16 5.16 0 001.27-7.23zM272.87 99.85c-5.29 0-9.74-1.06-13.26-3.2a17.13 17.13 0 01-8.2-13.65c-.64-7.16 3.41-14.19 11.73-20.34 6.06-4.47 13.12-7.48 16.69-8 7.16-1.13 11.66 2 12.14 2.31a4.84 4.84 0 01.28 6.24 5.56 5.56 0 01-6.35 2.11l.15.1a7.1 7.1 0 00-4.61-.56c-4.39.69-20.47 9.25-19.75 17.27a6.91 6.91 0 003.31 5.7c2.6 1.59 10.91 4.35 31.7-4.13a5.16 5.16 0 013.9 9.56c-10.77 4.38-20.11 6.59-27.73 6.59zM351.06 50.32c-5.72-1.74-16.21 2.73-24.64 7.2a204.42 204.42 0 01-1.33-31.27 5.16 5.16 0 00-10.3-.66c-.08 1.27-1.88 31.46 8.18 70.42a5.17 5.17 0 005 3.87 4.89 4.89 0 001.3-.17 5.14 5.14 0 003.7-6.28c-2.28-8.84-3.91-17.23-5.09-24.91 8.76-4.91 17.73-8.64 20.26-8.3 2 .62 2 .65 2.51 2.83 1 4.67 1.23 14.49 1.23 29.86a5.16 5.16 0 0010.32 0c-.01-32.99-.35-39.3-11.14-42.59zM387.55 148.29c-.65-.6-3.85-3.92-3.85-10.27 0-.8-.14-4.41-.31-8.59-2.39-59.17-1.07-60.61 1.12-63 5.3-5.77 14.45-12.56 22.79-12.74a25.69 25.69 0 0117.93 7.48 30.55 30.55 0 019.21 21.67c.23 12.47-13.36 22.63-40.39 30.19l-.2.06a5 5 0 01-.75.15c.22 6.44.45 12.15.6 15.77.22 5.4.32 8 .32 9a4.69 4.69 0 00.77 2.93 1.83 1.83 0 00-.18-.19s1.92 2.63-1.09 5.82-5.97 1.72-5.97 1.72zm5.29-75.64c-.63 3.95-.45 17-.08 30 19.79-5.73 31.48-13 31.35-19.64a20.24 20.24 0 00-6-14.42A15.55 15.55 0 00407.52 64c-4.28.11-10.44 4.31-14.68 8.65zM463.59 105.82a5.16 5.16 0 01-5-3.85c-14.88-56.42-13.39-88.39-10.17-98.39a5.16 5.16 0 119.83 3.17c-2.16 6.68-4.51 36.35 10.32 92.59a5.17 5.17 0 01-3.68 6.31 5.43 5.43 0 01-1.3.17zM494.12 114.25a21.74 21.74 0 01-2.7-.17c-9.39-1.27-14.06-5.86-13.89-13.62v-.36a22.11 22.11 0 018.14-16.6c7.46-6.07 19-7.81 34.35-5.18-.21-4.07-.53-8.42-.94-12.45-.17-1-1.33-5.38-8.1-6-10.12-1-21.74 6.27-25.36 9.14a5.16 5.16 0 01-6.42-8.08c.67-.53 16.45-12.89 32.76-11.34 12.48 1.19 16.82 10.37 17.37 15.05 3.16 31.25-.25 34.42-1.89 35.94-2.7 2.51-8.84 6.17-14.93 8.89-5.1 2.26-12.14 4.78-18.39 4.78zm13.08-26.81c-7.95 0-12.46 2-15 4.07a11.63 11.63 0 00-4.33 8.59v.59a3.52 3.52 0 00.14 1.5c.3.41 1.64 1.23 4.81 1.66 7.73 1 22.71-6.91 27-10.34a25.62 25.62 0 00.41-4.66 68.75 68.75 0 00-13.03-1.41zM597.91 67.5c-3.45-3.61-9.45-5.22-19.44-5.22A55.6 55.6 0 00559 65.67v-3.82a5.16 5.16 0 10-10.32.11c0 .4.05 4.14.11 9a24.36 24.36 0 00-2.31 1.8 5.14 5.14 0 002.46 8.83c.09 5.56.2 10.76.3 13.19.32 7.34 4.07 14.46 4.5 15.24a5.14 5.14 0 004.53 2.71 5.05 5.05 0 002.45-.63 5.16 5.16 0 002.1-7c-.85-1.58-3.08-6.59-3.27-10.79-.13-3-.26-10.49-.36-17.54a43.75 43.75 0 0119.29-4.2c9.55 0 11.65 1.69 12 2 .51.53.42 2.39.34 4.19v.58c-.27 6.14-1.63 19.78-1.64 19.91a5.16 5.16 0 004.62 5.65h.52a5.16 5.16 0 005.13-4.65c.06-.57 1.4-14.06 1.68-20.5v-.54c.12-3.32.33-7.99-3.22-11.71zM627.41 103.58c-7.26 0-14.63-1.08-18.82-4.5a9.7 9.7 0 01-3.68-9.08c1-7.46 6.71-14.38 14.27-17.23 4.93-1.85 14.29-3.33 26.4 4.28v-.91c-.18-6.74-10.66-13.65-18.64-14.08a16.46 16.46 0 00-12.43 5.14 5.16 5.16 0 01-7.83-6.72c.33-.39 8.19-9.42 20.81-8.73 12.85.69 28.06 11.38 28.41 24.11 0 1.44.11 2.83.18 4.16.41 8.28.88 17.68-8.91 21.07-2.84.99-11.17 2.49-19.76 2.49zm-12.24-12.44c.89.69 4.37 2.11 12.43 2.11h.2c7.22 0 13.79-1.15 16-1.9a2.36 2.36 0 001.67-1.58c-8.35-7.08-16.36-9.68-22.63-7.32a12 12 0 00-7.67 8.69zM717 71.26c-3.47-2.35-7.31 2.82-7.31 2.82s-1.74 3-9.94 8.79c-6.22 4.37-12.17 6.19-15.17 4.61s-4.74-7.57-4.65-16.39c0-4.43.28-8.82.65-13.09 13.64-4.57 28.58-3.69 28.73-3.68A5.16 5.16 0 00710 44a97.89 97.89 0 00-28.11 2.84 225.32 225.32 0 017-32.11 5.16 5.16 0 10-9.89-3.1c-.37 1.17-9.1 29-9.38 59.36-.12 13.39 3.31 22 10.18 25.63a15.72 15.72 0 007.43 1.77c7.11 0 14.23-4.09 18.48-7.07 10.4-7.32 12.89-11.65 13.47-13.17.01 0 1.32-4.54-2.18-6.89zM743.44 91.43a5.17 5.17 0 01-4.72-3.09c-8.62-19.62-5.7-32.86-5.57-33.42a5.16 5.16 0 0110.07 2.3c-.06.27-2.12 10.88 4.95 27a5.17 5.17 0 01-2.65 6.8 5.29 5.29 0 01-2.08.41zM741.9 21.64s-1.31 3.77-6.28 2-3.54-5.11-3.54-5.11c.3-1.13 1.26-3.17 4.14-6.5a5.16 5.16 0 017.8 6.76 15.48 15.48 0 00-2.12 2.85zM792.23 108.87a15 15 0 01-14-8.74c-5.64-11.22-1.9-31.32 8.17-43.89 7.13-8.91 16.3-12.51 25.79-10.14h.08a15.34 15.34 0 019.48 3.77c3.67 3.1 8 9.3 7.77 21.24-.32 18.4-18.49 37.09-36.67 37.73zm6.93-50.67a22.74 22.74 0 00-4.67 4.49c-8.12 10.15-10.43 26-7 32.8a4.82 4.82 0 005 3.05C805.28 98.09 819 83.91 819.24 71c.15-8.31-2.51-11.82-4.11-13.17a4.83 4.83 0 00-3.13-1.38c-.83.45-2.35 2.93-3 5a5.16 5.16 0 01-9.81-3.23zM812 56.43zM879.43 60.71c-4.2-4-10.14-6-17.21-5.62-8.61.4-16.92 5.48-22 9.32a5.13 5.13 0 00-7.79 4.2c0 .56-.51 14.09 6.79 42.73a5.16 5.16 0 0010-2.55c-4.1-16.07-5.62-27.09-6.18-33.38 3.57-3.22 12.18-9.66 19.68-10 4.24-.19 7.46.74 9.6 2.78 2.93 2.8 3.55 7.46 3.55 10.89 0 11-7.88 25.62-8 25.77a5.16 5.16 0 009.07 4.93c.38-.7 9.21-17.09 9.21-30.7.02-7.81-2.31-14.16-6.72-18.37zM914.93 105.5a91 91 0 01-20.18-2 5.16 5.16 0 012.41-10c17.84 4.29 47.4 1 52.05-8.12.45-.88.29-1.15.19-1.32-1-1.63-6.1-4.53-19.31-5-14.8-.54-30.64-2.06-31.26-13.17-.49-8.87 12.2-13.45 28.84-18.51 3.27-1 11.94-3.64 15.46 2 2.09 3.32 1 7.81-2.83 12a5.16 5.16 0 01-8.89-4.31l-.73.21c-13.73 4.18-19.1 6.77-21 8.32 1.49.89 6.23 2.64 20.8 3.18 14.86.55 24.22 3.95 27.83 10.11A11.32 11.32 0 01958.4 90c-5.87 11.49-25.98 15.5-43.47 15.5z"/></svg>
