<svg data-name="Layer 1" xmlns="http://www.w3.org/2000/svg" viewBox="0 0 430.05 68.11"><path d="M303.05 33.24c.69-5.63 1.69-35.47 9.89-28.15 1.24 1.11-1.2 12.42-1.05 15.57 3.11-.2 7.54-2.44 10.77-.06 4.74 3.52.19 4.88-3 5.52-2.54.51-7.08 1-9 1.27-1.18 4.37-1.54 11.07.67 11.63 5.91 1.48 11.49-6.89 14.12-5.68 4.94 2.28-4.18 8.41-6.09 10.31-6.83 6.82-16.94-1.37-16.31-10.41zM411.73 41.75c0-.1-17-1.12-12.39 5.24 1.75 2.43 36.84 2.67 29.78-11-5.48-4.56-12.54-4.74-19.23-5.54 1.17-1.36 3.53-1.67 5.21-2.28 2 .17 4.45 4.39 6.28 1.36 4.3-7.25-4.32-9-9.65-6.7-5.08 1.44-15.14 7.62-6.81 12 6 2.7 13.76 1 19.18 4.46-3.01 3.18-8.33 2.3-12.37 2.46zM32.23 31.11c.18 1.8-1.33 20.5 4.85 19.45 2.33-.65 1.7-4.53 3.52-5.53 4.69.55 16.94 4.49 19.4-.7-1.53-7.52-12.35-3.71-17.48-5.87C46 35 50.41 32.14 54.19 28.89c1.29-1.91 5.13-2.39 4.1-5.11A3.28 3.28 0 0055.77 22c-7.18 1.28-11.93 7.06-17 11.62-.36-3.68.64-11.68-.44-13.21-6.04-8.54-6.47 6.7-6.1 10.7z"/><path d="M10.16 32.6c24.62 4.74 9.3 15.77-4.6 10.08-5.16-2.12-7.4 3.53-3.79 6.4 4.85 4 13.19 3.66 19.33.57C33.2 43.68 31.66 32.28 21 29c-2.87-.87-8.41-.89-8.29-2.78C15 22.8 24 24.52 24.83 20.63c.74-3.64-9-4.28-13.34-.33-3.74 3.44-10.08 10.61-1.33 12.3zM147.59 46.13c6-.35 1.29-9 1-12.59.51-3 5.34-5 8.1-4.53 1.07.19-.12 11.05 1.64 13.05 5.32 6.06 5.83-3.14 5.17-7-.57-12.49-1.77-16.28-14.24-9.86-.73.32-1.64.67-1.78-.48-.35-4.36-.87-8.72-.92-13.09 0-2.24-1.81-3.26-4.34-1.46-5.72 5.85-1.44 16.23-.7 20.78.54 3.32 2 8.82 2.64 12.14.5 1.91 1.07 3.15 3.43 3.04zM103.41 26.84s-4.15 1-4.41-2.14-.11-6 2.71-8.36c1.7-1.43.59-3.06-1.1-3.86-5-2.37-7.92 5.19-7.66 8.9.55 7.58 1.39 7.36-3.1 8.8-1.73.55-1.74 3.77-.59 4.6 2 1.42 2.81-1.07 3.92-.27 1.83 1.3 1.38 6.07 2.59 8.13 2.81 9.58 17.47 5.27 14.14 0-2.22-4-7.45 7-9.83-6.41-1.54-3.71-1-4.27 4.69-4.35s3.99-5.98-1.36-5.04zM271 37.72c-1.38-12.13-10.36-8.78-19.34-8.7-1.55-.09-1.72-2.45-2.86-2.89-6.76-.71-4.83 22.26-.22 24.47 9.14 2.16-1.91-13.35 3.39-15.38 13.34-2.11 13.25-2.73 11.35 10.78-.83 3.81 4.33 4.81 5.31.22.58-2.86 2.37-4.73 2.37-8.5zM204.54 8.9c0-4 1.46-8.9-1.68-8.9-3.41 0-4.69 4.5-4.51 7.16a209.72 209.72 0 002.16 26.23c.73 5.47 1.05 14.23 6.27 14.23 7.94 0-2.29-11.84-2.24-38.72z"/><path d="M125 39.81c-12 1.67-3.27-10.18 3.29-9.73 4.58.28 2.85-4.42 0-5.2C116.9 22 103.72 43.32 119.28 46c7 1.23 19.34-3.29 17.8-6-2.49-4.27-7.74-.73-12.08-.19zM335 4.33c-3.77.82-6.21 9.2-.61 7 2.15-2.59 4.73-4.82.61-7zM372.34 35.69c.13-4.58-1.31-8.57 4.94-7.51 4.87-4.2 15.65-4.88 18.64 1.79 1.68 3.74-.14 20.62-4.37 20.82-9.9.45 9.93-24-9.33-18.95-8.42 1.69-3 12.47-2.7 18.1-.3 2.58-3 2.23-4.24.63-3.02-4.24-3.08-14.86-2.94-14.88zM336.8 42.08c-1.44 1.44-2.88-.11-3.19-.78-9-19.9 4.4-22.83 3-12.72-.82 6.95 2.92 10.06.19 13.5z"/><path d="M335 4.33c4.4-.18 1.3 6.23-.61 7-5.51 2.33-3.52-7 .61-7zM237.61 36.44c.18 0 .54-13.79-6.18-14.56-5.29 0-10.71.4-15.08 3.85-4 2.25-1.71 8.61 2.45 5.44 3.37-2 7.73-1.64 11.48-2.67-.13 1.86 1.89 5.16.24 6.28-6.49.43-15.57.68-16.92 8.7-.26 3.38-.19 8.69 4.54 8.54 5.68-.09 11.14-1.15 16-4.15 5.11-1.87 3.06-7.28 3.47-11.43zM221 46.76c-3 0-3.23-.33-1.19-3.37 2-2.75 9.09-3.52 11.43-1.32 2.59 1.71-7.48 4.69-10.24 4.69zM349.33 24.29c-3.43 5.1-6.37 10.93-6.37 17.3 1 18 24.92 5.48 25.28-6.64.48-9.95-10.86-20.28-18.91-10.66zm3.5 5.08a1.45 1.45 0 011.38-.06c2.37 2.24 3.07-.8 4.72-2.18 2.16 1.54 2.85 3.85 3.56 6.27-.49 9.15-23.57 20.96-9.66-4.03zM285.11 23.07c-4 0-8.66 1.93-8.66 7.27 0 3.3 5.24-.74 8-1.18 2.64 0 5.27.93 6.71 3.34-8.18-.16-18.38 1.34-15.09 12.28 3.08 7.33 23.86 3.45 24.18-3.43.33-9.62-5.12-16.85-15.14-18.28zm1.3 18.66c-2 0-4 .3-5.82-.62.83-2.71 3.4-2.58 5.7-3.15 2.63-.53 5.78-.08 5.78 3.46-1.78.65-3.79.17-5.66.31zM90.21 44.36c-2.42-1.56-5.54 1.28-8.06 1.38-4.5.46-10.76.34-12.53-4.79 6.46-1.76 19.89-9 13.87-14.56C68.17 12.33 53.44 54.7 78.41 51c0 0 15.33-.89 11.8-6.64zM73.12 31.87a11.77 11.77 0 011.12-1l.23-.18a8.61 8.61 0 011.59-.93l1.24 1a7.47 7.47 0 01-2.17 2.34 8.11 8.11 0 01-1.2.72 8.88 8.88 0 01-3.14.88 32.19 32.19 0 012.3-2.75zM190.46 28.1c-4.33-4.86-10.64-5-15.79-1.22-7.22 4.74-3.41 13.77-4.36 20.94-.18 2.22-1.85 23.15 5.2 20 .91-.39 1.57-2.19 1.68-3.42-2.6-19.39-.49-9.73 12.53-18.44 7-4.06 5.86-12.61.74-17.86zm-3.83 13.34c-2.43 1.89-6.17 3.18-8.56 4.51a5.5 5.5 0 00-.48.28c-1.07.52-1.65.59-2 .41a.53.53 0 01-.13-.13s0-.07-.05-.1-.23-7-.22-7.67a7.87 7.87 0 01.12-1.19v-.18a8.1 8.1 0 014.54-5.8 6.07 6.07 0 017.8 2.43c.18.26.36.54.53.84a4.63 4.63 0 01.49 4.2 6.26 6.26 0 01-2.04 2.4z"/></svg>
