<svg width="960" height="149" viewBox="0 0 960 149" fill="none" xmlns="http://www.w3.org/2000/svg">
  <path
    d="M16.09 114.68H16C13.96 114.627 11.9543 114.143 10.1151 113.259C8.27592 112.375 6.64505 111.111 5.33001 109.55C3.47327 107.465 2.05302 105.028 1.15306 102.385C0.253088 99.7419 -0.108368 96.9452 0.0900124 94.16C0.148244 93.4758 0.342469 92.81 0.661304 92.2018C0.980139 91.5936 1.41717 91.0552 1.94678 90.618C2.4764 90.1809 3.08794 89.8539 3.74556 89.6561C4.40319 89.4584 5.09368 89.3939 5.77655 89.4664C6.45942 89.539 7.12094 89.7471 7.72234 90.0786C8.32374 90.4101 8.85292 90.8583 9.27887 91.397C9.70482 91.9356 10.019 92.5539 10.2029 93.2155C10.3868 93.8771 10.4368 94.5688 10.35 95.25C10.271 97.9652 11.217 100.611 13 102.66C13.3616 103.128 13.8134 103.519 14.3287 103.809C14.844 104.099 15.4123 104.283 16 104.35H16.06C23.3 104.35 33.06 101.19 42.17 95.88C51.28 90.57 55.72 85.55 56.17 83.88C56.06 79.03 50.77 75.07 45.86 73.43C42.2849 72.5418 38.653 71.9003 34.99 71.51C24.64 70.09 18.65 69.12 15.85 65.75C15.2626 65.0458 14.8357 64.2221 14.5991 63.3361C14.3625 62.4502 14.3219 61.5233 14.48 60.62C14.83 59 15.65 54 35 42.09C39.19 39.18 42.16 39.88 43.93 40.99C46.76 42.77 47.3 46.13 46.85 48.67C46.7058 49.5407 46.341 50.3601 45.7905 51.0499C45.24 51.7398 44.522 52.2772 43.705 52.6111C42.8879 52.9449 41.9991 53.064 41.123 52.957C40.2469 52.8501 39.4127 52.5206 38.7 52C34.8464 54.442 31.143 57.1135 27.61 60C30.42 60.54 33.95 61 36.48 61.37C41.42 62.05 46.09 62.7 49.2 63.73C57.2 66.4 66.57 73.35 66.57 84.13C66.57 87.49 64.64 91.06 60.66 95.03C51.14 104.45 31.4 114.68 16.09 114.68ZM132.61 91.34C131.46 91.07 108.33 85.75 89.95 87.82C108.34 66.82 127.25 57.52 127.45 57.42C128.683 56.8259 129.63 55.7663 130.082 54.4741C130.534 53.182 130.454 51.7633 129.86 50.53C129.266 49.2968 128.206 48.35 126.914 47.898C125.622 47.4461 124.203 47.5259 122.97 48.12C122.09 48.55 103.73 57.55 84.84 78.05C83.61 55.69 84.65 44.38 84.68 44.15C84.7462 42.8227 84.2988 41.5208 83.4305 40.5146C82.5622 39.5085 81.3398 38.8753 80.017 38.7467C78.6942 38.618 77.3727 39.0037 76.3268 39.8236C75.2809 40.6435 74.5909 41.8348 74.4 43.15C74.32 44.02 72.33 64.93 76.9 107.33C77.042 108.585 77.6396 109.745 78.5796 110.589C79.5196 111.433 80.7366 111.903 82 111.91H82.56C83.2337 111.837 83.8864 111.631 84.4806 111.305C85.0749 110.98 85.5992 110.54 86.0236 110.012C86.448 109.483 86.7641 108.876 86.954 108.226C87.1438 107.575 87.2036 106.894 87.13 106.22C86.86 103.69 86.61 101.22 86.39 98.87C102.75 95.11 129.95 101.36 130.24 101.42C130.922 101.652 131.645 101.739 132.362 101.675C133.08 101.611 133.776 101.397 134.406 101.048C135.036 100.699 135.586 100.221 136.02 99.6465C136.454 99.0718 136.763 98.4125 136.928 97.7111C137.092 97.0097 137.107 96.2817 136.973 95.574C136.839 94.8663 136.558 94.1945 136.148 93.6019C135.739 93.0093 135.21 92.509 134.595 92.1332C133.981 91.7574 133.294 91.5145 132.58 91.42L132.61 91.34ZM175.25 111.78C168.09 111.78 161.05 110.36 155.41 106.86C148.51 102.57 144.61 95.74 144.14 87.1C143.49 75.1 149.14 64.62 159.66 58.22C168.02 53.12 177.66 51.79 183.05 54.97C184.53 55.785 185.755 56.9957 186.587 58.4668C187.419 59.9379 187.825 61.6113 187.76 63.3C187.47 71.9 175.92 80.52 170.7 83.13C164.7 86.13 157.84 86.7 154.46 86.79C154.8 91.93 156.9 95.63 160.86 98.09C169.51 103.46 184.86 101.77 195.01 97.44C195.637 97.1432 196.318 96.976 197.011 96.9483C197.704 96.9206 198.396 97.033 199.045 97.2788C199.694 97.5245 200.286 97.8987 200.787 98.3787C201.288 98.8588 201.687 99.435 201.96 100.073C202.234 100.711 202.375 101.397 202.377 102.091C202.379 102.785 202.241 103.472 201.971 104.111C201.701 104.75 201.305 105.328 200.807 105.811C200.308 106.294 199.718 106.671 199.07 106.92C191.523 110.079 183.431 111.73 175.25 111.78ZM175.88 63.59C171.901 63.7751 168.046 65.0291 164.72 67.22C161.132 69.4185 158.235 72.5824 156.36 76.35C159.723 76.1357 163.017 75.3053 166.08 73.9C171.08 71.41 176.08 66.2 177.23 63.69C176.783 63.6199 176.332 63.5865 175.88 63.59ZM244.18 93.42C243.397 92.2994 242.202 91.5345 240.856 91.2927C239.511 91.051 238.124 91.352 237 92.13C234.25 94.05 230.45 96.13 228 94.91C226.11 94 221.73 89.79 219.78 70.32C225.481 69.194 231.27 68.5683 237.08 68.45C238.449 68.4102 239.745 67.8284 240.685 66.8326C241.624 65.8368 242.13 64.5085 242.09 63.14C242.05 61.7715 241.468 60.4748 240.473 59.5353C239.477 58.5957 238.149 58.0902 236.78 58.13C230.813 58.2813 224.868 58.9066 219 60C218 41.37 220.18 39.12 223.81 35.32L224.32 34.79C224.787 34.2989 225.152 33.7206 225.396 33.0882C225.639 32.4558 225.756 31.7816 225.738 31.1042C225.721 30.4268 225.571 29.7594 225.296 29.1401C225.021 28.5209 224.626 27.9619 224.135 27.495C223.644 27.0282 223.066 26.6626 222.433 26.4193C221.801 26.1759 221.127 26.0595 220.449 26.0767C219.772 26.0938 219.104 26.2443 218.485 26.5194C217.866 26.7945 217.307 27.1889 216.84 27.68L216.35 28.19C209.92 34.91 207.46 39.9 208.82 62.72C200.9 65.57 197.82 68.79 197.31 69.39C196.412 70.423 195.962 71.7704 196.057 73.1356C196.153 74.5009 196.787 75.7722 197.82 76.67C198.853 77.5678 200.2 78.0184 201.566 77.9227C202.931 77.8271 204.202 77.193 205.1 76.16C206.499 75.0429 208.051 74.1335 209.71 73.46C211.71 90.89 216.15 100.75 223.53 104.27C225.426 105.184 227.505 105.656 229.61 105.65C233.68 105.65 238.13 103.98 242.91 100.65C243.471 100.261 243.95 99.7651 244.318 99.1901C244.686 98.6151 244.937 97.9728 245.055 97.3003C245.173 96.6278 245.157 95.9385 245.006 95.2724C244.856 94.6064 244.575 93.9767 244.18 93.42ZM272.87 99.85C267.58 99.85 263.13 98.79 259.61 96.65C257.24 95.2086 255.256 93.2134 253.828 90.8357C252.399 88.4581 251.57 85.7691 251.41 83C250.77 75.84 254.82 68.81 263.14 62.66C269.2 58.19 276.26 55.18 279.83 54.66C286.99 53.53 291.49 56.66 291.97 56.97C292.746 57.8095 293.2 58.8966 293.251 60.0388C293.303 61.181 292.948 62.3044 292.25 63.21C291.564 64.2034 290.574 64.9465 289.428 65.3272C288.282 65.7078 287.044 65.7053 285.9 65.32L286.05 65.42C284.62 64.7219 282.996 64.5246 281.44 64.86C277.05 65.55 260.97 74.11 261.69 82.13C261.723 83.2806 262.044 84.4047 262.622 85.4001C263.2 86.3955 264.017 87.2308 265 87.83C267.6 89.42 275.91 92.18 296.7 83.7C297.968 83.1828 299.389 83.1904 300.651 83.7212C301.913 84.2519 302.913 85.2623 303.43 86.53C303.947 87.7977 303.94 89.219 303.409 90.4811C302.878 91.7432 301.868 92.7428 300.6 93.26C289.83 97.64 280.49 99.85 272.87 99.85ZM351.06 50.32C345.34 48.58 334.85 53.05 326.42 57.52C325.178 47.146 324.734 36.692 325.09 26.25C325.133 25.5737 325.043 24.8955 324.824 24.2541C324.606 23.6127 324.263 23.0206 323.815 22.5118C323.367 22.0029 322.824 21.5872 322.216 21.2883C321.607 20.9895 320.946 20.8133 320.27 20.77C318.904 20.6825 317.559 21.1411 316.532 22.0451C316.023 22.4926 315.607 23.0361 315.308 23.6443C315.009 24.2526 314.833 24.9137 314.79 25.59C314.71 26.86 312.91 57.05 322.97 96.01C323.258 97.1174 323.905 98.0981 324.809 98.7984C325.714 99.4988 326.826 99.8791 327.97 99.88C328.409 99.8819 328.846 99.8248 329.27 99.71C329.926 99.5423 330.543 99.2465 331.084 98.8396C331.626 98.4328 332.082 97.9229 332.426 97.3393C332.77 96.7557 332.995 96.1099 333.088 95.439C333.181 94.7681 333.141 94.0853 332.97 93.43C330.69 84.59 329.06 76.2 327.88 68.52C336.64 63.61 345.61 59.88 348.14 60.22C350.14 60.84 350.14 60.87 350.65 63.05C351.65 67.72 351.88 77.54 351.88 92.91C351.88 94.2785 352.424 95.591 353.391 96.5587C354.359 97.5264 355.671 98.07 357.04 98.07C358.409 98.07 359.721 97.5264 360.689 96.5587C361.656 95.591 362.2 94.2785 362.2 92.91C362.19 59.92 361.85 53.61 351.06 50.32ZM387.55 148.29C386.9 147.69 383.7 144.37 383.7 138.02C383.7 137.22 383.56 133.61 383.39 129.43C381 70.26 382.32 68.82 384.51 66.43C389.81 60.66 398.96 53.87 407.3 53.69C414.025 53.7402 420.463 56.4258 425.23 61.17C428.122 63.9932 430.426 67.3623 432.007 71.0821C433.588 74.8018 434.415 78.7983 434.44 82.84C434.67 95.31 421.08 105.47 394.05 113.03L393.85 113.09C393.604 113.159 393.353 113.209 393.1 113.24C393.32 119.68 393.55 125.39 393.7 129.01C393.92 134.41 394.02 137.01 394.02 138.01C393.945 139.045 394.216 140.075 394.79 140.94C394.735 140.872 394.674 140.809 394.61 140.75C394.61 140.75 396.53 143.38 393.52 146.57C390.51 149.76 387.55 148.29 387.55 148.29ZM392.84 72.65C392.21 76.6 392.39 89.65 392.76 102.65C412.55 96.92 424.24 89.65 424.11 83.01C424.115 80.3288 423.587 77.6734 422.557 75.198C421.527 72.7225 420.015 70.4764 418.11 68.59C415.3 65.7581 411.508 64.1148 407.52 64C403.24 64.11 397.08 68.31 392.84 72.65ZM463.59 105.82C462.448 105.822 461.338 105.445 460.433 104.748C459.528 104.052 458.88 103.075 458.59 101.97C443.71 45.55 445.2 13.58 448.42 3.58001C448.84 2.27647 449.761 1.19331 450.98 0.568816C451.584 0.259597 452.242 0.0722902 452.918 0.0175894C453.594 -0.0371114 454.275 0.0418654 454.92 0.250011C455.565 0.458156 456.164 0.791393 456.68 1.2307C457.197 1.67 457.622 2.20676 457.931 2.81034C458.24 3.41393 458.428 4.0725 458.482 4.74847C458.537 5.42444 458.458 6.10456 458.25 6.75001C456.09 13.43 453.74 43.1 468.57 99.34C468.917 100.665 468.725 102.073 468.035 103.256C467.345 104.439 466.214 105.3 464.89 105.65C464.465 105.759 464.029 105.816 463.59 105.82ZM494.12 114.25C493.217 114.249 492.316 114.193 491.42 114.08C482.03 112.81 477.36 108.22 477.53 100.46V100.1C477.608 96.9095 478.376 93.7738 479.782 90.9083C481.187 88.0429 483.196 85.5155 485.67 83.5C493.13 77.43 504.67 75.69 520.02 78.32C519.81 74.25 519.49 69.9 519.08 65.87C518.91 64.87 517.75 60.49 510.98 59.87C500.86 58.87 489.24 66.14 485.62 69.01C484.549 69.8614 483.183 70.2522 481.823 70.0965C480.463 69.9409 479.221 69.2515 478.37 68.18C477.519 67.1085 477.128 65.7427 477.283 64.3831C477.439 63.0235 478.129 61.7814 479.2 60.93C479.87 60.4 495.65 48.04 511.96 49.59C524.44 50.78 528.78 59.96 529.33 64.64C532.49 95.89 529.08 99.06 527.44 100.58C524.74 103.09 518.6 106.75 512.51 109.47C507.41 111.73 500.37 114.25 494.12 114.25ZM507.2 87.44C499.25 87.44 494.74 89.44 492.2 91.51C490.907 92.5501 489.852 93.8547 489.105 95.3363C488.358 96.8179 487.937 98.4422 487.87 100.1V100.69C487.808 101.194 487.856 101.706 488.01 102.19C488.31 102.6 489.65 103.42 492.82 103.85C500.55 104.85 515.53 96.94 519.82 93.51C520.098 91.9724 520.236 90.4126 520.23 88.85C515.941 87.9661 511.578 87.494 507.2 87.44ZM597.91 67.5C594.46 63.89 588.46 62.28 578.47 62.28C571.83 62.2383 565.235 63.3864 559 65.67V61.85C558.993 61.1724 558.852 60.5028 558.586 59.8796C558.32 59.2563 557.934 58.6915 557.45 58.2174C556.966 57.7434 556.393 57.3694 555.764 57.1167C555.135 56.8641 554.463 56.7378 553.785 56.745C553.107 56.7522 552.438 56.8929 551.815 57.1588C551.191 57.4248 550.627 57.811 550.152 58.2952C549.678 58.7795 549.304 59.3524 549.052 59.9812C548.799 60.61 548.673 61.2824 548.68 61.96C548.68 62.36 548.73 66.1 548.79 70.96C547.985 71.5131 547.213 72.1142 546.48 72.76C545.78 73.4011 545.271 74.2235 545.01 75.136C544.749 76.0486 544.745 77.0156 545 77.93C545.255 78.8443 545.758 79.6703 546.453 80.3163C547.149 80.9624 548.009 81.4032 548.94 81.59C549.03 87.15 549.14 92.35 549.24 94.78C549.56 102.12 553.31 109.24 553.74 110.02C554.179 110.839 554.833 111.524 555.631 112.001C556.428 112.478 557.34 112.73 558.27 112.73C559.127 112.731 559.97 112.514 560.72 112.1C561.318 111.779 561.847 111.343 562.277 110.817C562.706 110.292 563.028 109.686 563.223 109.036C563.418 108.386 563.483 107.703 563.414 107.028C563.345 106.352 563.143 105.697 562.82 105.1C561.97 103.52 559.74 98.51 559.55 94.31C559.42 91.31 559.29 83.82 559.19 76.77C565.216 73.9186 571.814 72.482 578.48 72.57C588.03 72.57 590.13 74.26 590.48 74.57C590.99 75.1 590.9 76.96 590.82 78.76V79.34C590.55 85.48 589.19 99.12 589.18 99.25C589.112 99.9244 589.178 100.605 589.374 101.254C589.569 101.903 589.891 102.507 590.32 103.032C590.749 103.557 591.277 103.992 591.874 104.312C592.471 104.633 593.126 104.832 593.8 104.9H594.32C595.599 104.899 596.833 104.422 597.781 103.563C598.729 102.704 599.324 101.523 599.45 100.25C599.51 99.68 600.85 86.19 601.13 79.75V79.21C601.25 75.89 601.46 71.22 597.91 67.5ZM634.41 103.58C627.15 103.58 619.78 102.5 615.59 99.08C614.226 98.0293 613.166 96.6345 612.519 95.0388C611.873 93.443 611.662 91.7039 611.91 90C612.91 82.54 618.62 75.62 626.18 72.77C631.11 70.92 640.47 69.44 652.58 77.05V76.14C652.4 69.4 641.92 62.49 633.94 62.06C631.623 61.9932 629.318 62.4166 627.176 63.3024C625.034 64.1881 623.103 65.5163 621.51 67.2C620.611 68.21 619.351 68.8267 618.002 68.9173C616.653 69.0079 615.322 68.5653 614.295 67.6846C613.269 66.8039 612.63 65.5555 612.515 64.2081C612.4 62.8607 612.818 61.522 613.68 60.48C614.01 60.09 621.87 51.06 634.49 51.75C647.34 52.44 662.55 63.13 662.9 75.86C662.9 77.3 663.01 78.69 663.08 80.02C663.49 88.3 663.96 97.7 654.17 101.09C651.33 102.08 643 103.58 634.41 103.58ZM622.17 91.14C623.06 91.83 626.54 93.25 634.6 93.25H634.8C642.02 93.25 648.59 92.1 650.8 91.35C651.19 91.2509 651.548 91.0536 651.84 90.7771C652.133 90.5006 652.349 90.1539 652.47 89.77C644.12 82.69 636.11 80.09 629.84 82.45C627.932 83.1329 626.227 84.288 624.886 85.8076C623.545 87.3271 622.611 89.1617 622.17 91.14ZM724 71.26C720.53 68.91 716.69 74.08 716.69 74.08C716.69 74.08 714.95 77.08 706.75 82.87C700.53 87.24 694.58 89.06 691.58 87.48C688.58 85.9 686.84 79.91 686.93 71.09C686.93 66.66 687.21 62.27 687.58 58C701.22 53.43 716.16 54.31 716.31 54.32C717.679 54.4115 719.027 53.9556 720.06 53.0526C721.092 52.1496 721.724 50.8735 721.815 49.505C721.907 48.1365 721.451 46.7877 720.548 45.7553C719.645 44.7229 718.369 44.0915 717 44C707.542 43.5824 698.073 44.539 688.89 46.84C690.439 35.9806 692.778 25.2487 695.89 14.73C696.094 14.0806 696.167 13.3975 696.107 12.7197C696.046 12.0418 695.853 11.3825 695.538 10.7794C695.222 10.1763 694.791 9.64115 694.269 9.20459C693.747 8.76802 693.144 8.43856 692.495 8.23501C691.846 8.03146 691.162 7.95781 690.485 8.01827C689.807 8.07872 689.147 8.2721 688.544 8.58735C687.941 8.90261 687.406 9.33357 686.97 9.85563C686.533 10.3777 686.204 10.9806 686 11.63C685.63 12.8 676.9 40.63 676.62 70.99C676.5 84.38 679.93 92.99 686.8 96.62C689.093 97.8119 691.645 98.4198 694.23 98.39C701.34 98.39 708.46 94.3 712.71 91.32C723.11 84 725.6 79.67 726.18 78.15C726.19 78.15 727.5 73.61 724 71.26ZM750.44 91.43C749.439 91.4275 748.459 91.1341 747.621 90.5855C746.783 90.037 746.123 89.2569 745.72 88.34C737.1 68.72 740.02 55.48 740.15 54.92C740.455 53.5846 741.278 52.4251 742.438 51.6966C743.598 50.968 745 50.73 746.335 51.035C747.67 51.34 748.83 52.163 749.558 53.3229C750.287 54.4828 750.525 55.8846 750.22 57.22C750.16 57.49 748.1 68.1 755.17 84.22C755.718 85.4735 755.746 86.8929 755.25 88.1674C754.753 89.442 753.771 90.4677 752.52 91.02C751.861 91.2956 751.154 91.4351 750.44 91.43ZM748.9 21.64C748.9 21.64 747.59 25.41 742.62 23.64C737.65 21.87 739.08 18.53 739.08 18.53C739.38 17.4 740.34 15.36 743.22 12.03C744.116 10.9957 745.387 10.3598 746.752 10.2623C748.118 10.1648 749.466 10.6136 750.5 11.51C751.534 12.4064 752.17 13.6771 752.268 15.0423C752.365 16.4076 751.916 17.7557 751.02 18.79C750.206 19.6555 749.495 20.6118 748.9 21.64ZM782 108.79C779.067 108.862 776.178 108.072 773.69 106.519C771.202 104.965 769.223 102.716 768 100.05C762.36 88.83 766.1 68.73 776.17 56.16C783.3 47.25 792.47 43.65 801.96 46.02H802.04C805.538 46.1583 808.883 47.4886 811.52 49.79C815.19 52.89 819.52 59.09 819.29 71.03C818.97 89.43 800.8 108.12 782.62 108.76L782 108.79ZM788.93 58.12C787.167 59.3861 785.594 60.8981 784.26 62.61C776.14 72.76 773.83 88.61 777.26 95.41C777.643 96.3969 778.34 97.2303 779.244 97.7815C780.147 98.3328 781.207 98.5712 782.26 98.46C795.05 98.01 808.77 83.83 809.01 70.92C809.16 62.61 806.5 59.1 804.9 57.75C800.574 53.494 793.484 55.402 788.96 58.14L788.93 58.12ZM879.43 60.71C875.23 56.71 869.29 54.71 862.22 55.09C853.61 55.49 845.3 60.57 840.22 64.41C839.455 63.9456 838.583 63.6892 837.688 63.6662C836.794 63.6432 835.91 63.8544 835.122 64.279C834.335 64.7035 833.672 65.3265 833.2 66.0863C832.728 66.846 832.462 67.716 832.43 68.61C832.43 69.17 831.92 82.7 839.22 111.34C839.558 112.666 840.409 113.804 841.586 114.502C842.763 115.201 844.169 115.403 845.495 115.065C846.821 114.727 847.959 113.876 848.657 112.699C849.356 111.522 849.558 110.116 849.22 108.79C845.12 92.72 843.6 81.7 843.04 75.41C846.61 72.19 855.22 65.75 862.72 65.41C866.96 65.22 870.18 66.15 872.32 68.19C875.25 70.99 875.87 75.65 875.87 79.08C875.87 90.08 867.99 104.7 867.87 104.85C867.546 105.446 867.343 106.099 867.272 106.773C867.201 107.447 867.263 108.129 867.455 108.779C867.647 109.429 867.966 110.035 868.392 110.561C868.818 111.088 869.344 111.526 869.94 111.85C870.536 112.174 871.189 112.377 871.863 112.448C872.537 112.519 873.219 112.457 873.869 112.265C874.519 112.073 875.125 111.754 875.651 111.328C876.178 110.902 876.616 110.376 876.94 109.78C877.32 109.08 886.15 92.69 886.15 79.08C886.17 71.27 883.84 64.92 879.43 60.71ZM914.93 105.5C908.15 105.587 901.381 104.916 894.75 103.5C893.518 103.096 892.484 102.242 891.853 101.11C891.222 99.9775 891.04 98.649 891.344 97.3887C891.647 96.1284 892.414 95.0286 893.492 94.308C894.57 93.5875 895.879 93.299 897.16 93.5C915 97.79 944.56 94.5 949.21 85.38C949.66 84.5 949.5 84.23 949.4 84.06C948.4 82.43 943.3 79.53 930.09 79.06C915.29 78.52 899.45 77 898.83 65.89C898.34 57.02 911.03 52.44 927.67 47.38C930.94 46.38 939.61 43.74 943.13 49.38C945.22 52.7 944.13 57.19 940.3 61.38C939.549 62.1949 938.556 62.7464 937.467 62.9529C936.378 63.1593 935.252 63.0098 934.254 62.5263C933.257 62.0429 932.442 61.2512 931.93 60.2686C931.418 59.2859 931.235 58.1644 931.41 57.07L930.68 57.28C916.95 61.46 911.58 64.05 909.68 65.6C911.17 66.49 915.91 68.24 930.48 68.78C945.34 69.33 954.7 72.73 958.31 78.89C959.279 80.5779 959.796 82.4871 959.812 84.4332C959.828 86.3793 959.341 88.2966 958.4 90C952.53 101.49 932.42 105.5 914.93 105.5Z"
    fill="black" />
</svg>
