<svg xmlns="http://www.w3.org/2000/svg" viewBox="0 0 127.97 149.69" preserveAspectRatio="xMinYMin meet"><path d="M16.09 114.68H16a14.44 14.44 0 01-10.67-5.13A20.91 20.91 0 01.09 94.16a5.16 5.16 0 1110.26 1.09 10.81 10.81 0 002.65 7.41 4.42 4.42 0 003 1.69h.06c7.24 0 17-3.16 26.11-8.47s13.55-10.33 14-12c-.11-4.85-5.4-8.81-10.31-10.45a80.43 80.43 0 00-10.87-1.92c-10.35-1.42-16.34-2.39-19.14-5.76a6.31 6.31 0 01-1.37-5.13C14.83 59 15.65 54 35 42.09c4.19-2.91 7.16-2.21 8.93-1.1 2.83 1.78 3.37 5.14 2.92 7.68A5.17 5.17 0 0138.7 52a113.84 113.84 0 00-11.09 8c2.81.54 6.34 1 8.87 1.37 4.94.68 9.61 1.33 12.72 2.36 8 2.67 17.37 9.62 17.37 20.4 0 3.36-1.93 6.93-5.91 10.9-9.52 9.42-29.26 19.65-44.57 19.65zm40.18-30.86zM80.84 148.29c-.65-.6-3.85-3.92-3.85-10.27 0-.8-.15-4.41-.31-8.59-2.4-59.17-1.07-60.61 1.12-63 5.3-5.77 14.44-12.56 22.79-12.74a25.69 25.69 0 0117.93 7.48 30.5 30.5 0 019.2 21.67c.28 12.48-13.35 22.64-40.38 30.16l-.2.06a5 5 0 01-.75.15c.22 6.44.45 12.15.6 15.77.22 5.4.32 8 .32 9a4.69 4.69 0 00.77 2.93 1.83 1.83 0 00-.18-.19s1.92 2.63-1.09 5.82-5.97 1.75-5.97 1.75zm5.29-75.64c-.63 3.95-.45 17-.08 30 19.79-5.65 31.48-13 31.35-19.65a20.25 20.25 0 00-6-14.42A15.51 15.51 0 00100.81 64c-4.28.11-10.44 4.31-14.68 8.65z"/></svg>
