<?xml version="1.0" standalone="no"?>
<!DOCTYPE svg PUBLIC "-//W3C//DTD SVG 20010904//EN"
 "http://www.w3.org/TR/2001/REC-SVG-20010904/DTD/svg10.dtd">
<svg version="1.0" xmlns="http://www.w3.org/2000/svg"
 width="501.000000pt" height="501.000000pt" viewBox="0 0 501.000000 501.000000"
 preserveAspectRatio="xMidYMid meet">
<metadata>
Created by potrace 1.11, written by Peter Selinger 2001-2013
</metadata>
<g transform="translate(0.000000,501.000000) scale(0.100000,-0.100000)"
fill="#000000" stroke="none">
<path d="M1558 4035 c-2 -1 -29 -5 -61 -9 -150 -15 -313 -73 -432 -151 -49
-33 -125 -99 -195 -172 -136 -140 -157 -164 -228 -263 -171 -238 -196 -428
-70 -547 30 -28 142 -92 171 -97 16 -3 145 -33 297 -68 69 -16 136 -32 149
-34 13 -3 91 -27 173 -54 391 -129 599 -287 601 -458 4 -223 -380 -405 -832
-396 -194 3 -377 35 -546 94 -224 79 -274 89 -360 69 -224 -50 -291 -328 -126
-520 127 -147 437 -276 709 -296 143 -9 342 -4 402 12 8 2 35 7 60 10 157 22
384 100 558 191 421 220 667 537 678 874 10 319 -175 595 -512 764 -121 61
-244 100 -394 125 -69 12 -165 29 -215 38 -189 32 -305 87 -305 143 0 27 73
94 133 123 70 34 174 68 247 80 389 69 531 115 600 193 73 84 63 193 -24 256
-61 44 -105 61 -226 84 -34 6 -246 14 -252 9z"/>
<path d="M3858 4035 c-2 -2 -23 -6 -48 -10 -190 -27 -443 -152 -608 -300 -113
-102 -216 -291 -238 -435 -3 -19 -7 -42 -10 -50 -23 -83 -23 -425 2 -745 11
-143 6 -339 -12 -510 -17 -168 -24 -694 -11 -875 10 -135 17 -202 22 -225 2
-11 7 -42 11 -70 30 -230 128 -428 234 -473 69 -29 174 -10 228 41 63 58 108
205 97 312 -11 103 -12 116 -19 165 -17 118 -25 187 -32 255 -3 33 -8 78 -10
100 -3 22 -7 108 -9 190 -7 252 29 330 177 387 29 11 62 22 73 24 65 12 314
91 409 130 110 45 297 139 348 175 14 11 28 19 31 19 21 0 236 158 292 214
200 201 264 464 193 786 -61 280 -313 625 -565 773 -64 37 -180 86 -222 93
-14 3 -44 10 -66 16 -35 9 -260 20 -267 13z m263 -596 c132 -39 264 -158 342
-307 73 -139 81 -249 27 -359 -74 -151 -243 -269 -640 -451 -74 -34 -188 -89
-253 -122 -127 -65 -187 -77 -205 -42 -5 9 -11 58 -12 107 -1 50 -4 133 -6
185 -5 156 -5 423 1 455 29 160 121 322 233 412 26 21 49 41 50 46 2 4 8 7 14
7 5 0 22 8 36 19 64 44 220 82 307 73 22 -2 70 -12 106 -23z"/>
</g>
</svg>
